# This file uses centimeters as units for non-parametric coordinates.

mtllib arena.mtl
g default
v -75.000000 -2.392321 75.000000
v 75.000000 -2.392321 75.000000
v -75.000000 -2.392321 -75.000000
v 75.000000 -2.392321 -75.000000
v -75.000000 7.213730 75.000000
v 75.000000 7.213730 75.000000
v 72.031990 7.213730 72.031990
v -72.031990 7.213730 72.031990
v 75.000000 7.213730 -75.000000
v 72.031990 7.213730 -72.031990
v -75.000000 7.213730 -75.000000
v -72.031990 7.213730 -72.031990
v -71.645447 1.442602 71.645447
v -70.589386 0.386544 70.589386
v -69.146790 0.000000 69.146790
v -72.031990 2.885203 72.031990
v 71.645447 1.442602 71.645447
v 70.589386 0.386544 70.589386
v 69.146790 0.000000 69.146790
v 72.031990 2.885203 72.031990
v 71.645447 1.442602 -71.645447
v 70.589386 0.386544 -70.589386
v 69.146790 0.000000 -69.146790
v 72.031990 2.885203 -72.031990
v -71.645447 1.442602 -71.645447
v -70.589386 0.386544 -70.589386
v -69.146790 0.000000 -69.146790
v -72.031990 2.885203 -72.031990
vt 0.041707 0.149558
vt 0.041707 0.149558
vt 0.093535 0.149618
vt 0.093337 0.960170
vt 0.041707 0.149558
vt 0.093337 0.960170
vt 0.093257 0.960188
vt 0.041707 0.149558
vt 0.132897 0.165701
vt 0.140954 0.167799
vt 0.140954 0.167799
vt 0.132897 0.165701
vt 0.149010 0.173515
vt 0.149010 0.173515
vt 0.109357 0.944375
vt 0.109357 0.944375
vt 0.140689 0.942105
vt 0.132897 0.165701
vt 0.132897 0.165701
vt 0.140655 0.942105
vt 0.109277 0.944180
vt 0.109357 0.944375
vt 0.148749 0.936410
vt 0.148879 0.936410
vt 0.093535 0.149618
vt 0.219811 0.216354
vt 0.156810 0.928629
vt 0.219811 0.965056
vt 0.156940 0.928629
vt 0.156940 0.928629
vt 0.968512 0.965056
vt 0.968512 0.216354
vt 0.156940 0.928629
vt 0.157066 0.181320
vt 0.140954 0.167799
vt 0.149010 0.173515
vt 0.109543 0.165674
vt 0.132630 0.944188
vt 0.041429 0.960170
vt 0.109543 0.165674
vt 0.132747 0.944188
vt 0.109543 0.165674
vt 0.132747 0.944188
vt 0.132747 0.944188
vt 0.109543 0.165674
vt 0.140954 0.167799
vt 0.149010 0.173515
vt 0.157066 0.181320
vt 0.157066 0.181320
vt 0.148879 0.936410
vt 0.140655 0.942105
vt 0.140655 0.942105
vt 0.148879 0.936410
vt 0.157066 0.181320
vt 0.093535 0.149618
vt 0.041429 0.960170
vt 0.093535 0.149618
vt 0.041429 0.960170
vt 0.093337 0.960170
vt 0.041429 0.960170
vn 0.000000 0.000000 -1.000000
vn 0.000000 0.000000 -1.000000
vn 0.000000 0.000000 -1.000000
vn 0.000000 0.000000 -1.000000
vn -1.000000 0.000000 0.000000
vn -1.000000 0.000000 0.000000
vn -1.000000 0.000000 0.000000
vn -1.000000 0.000000 0.000000
vn 0.000000 1.000000 0.000000
vn 0.000000 1.000000 0.000000
vn 0.000000 1.000000 0.000000
vn 0.000000 1.000000 0.000000
vn 0.000000 1.000000 0.000000
vn 0.000000 1.000000 0.000000
vn 0.000000 1.000000 0.000000
vn 0.000000 1.000000 0.000000
vn 0.000000 1.000000 -0.000000
vn 0.000000 1.000000 -0.000000
vn 0.000000 1.000000 -0.000000
vn 0.000000 1.000000 -0.000000
vn 0.000000 1.000000 0.000000
vn 0.000000 1.000000 0.000000
vn 0.000000 1.000000 0.000000
vn 0.000000 1.000000 0.000000
vn 0.000000 0.000000 1.000000
vn 0.000000 0.000000 1.000000
vn 0.000000 0.000000 1.000000
vn 0.000000 0.000000 1.000000
vn 1.000000 0.000000 0.000000
vn 1.000000 0.000000 0.000000
vn 1.000000 0.000000 0.000000
vn 1.000000 0.000000 0.000000
vn 0.004077 0.999983 -0.004077
vn 0.000000 0.796794 -0.604251
vn 0.000000 0.796794 -0.604251
vn -0.004077 0.999983 -0.004077
vn 0.000000 0.424883 -0.905248
vn 0.000000 0.424883 -0.905248
vn 0.000000 0.058317 -0.998298
vn 0.000000 0.058317 -0.998298
vn 0.998298 0.058317 0.000000
vn 0.905248 0.424884 0.000000
vn 0.905248 0.424884 0.000000
vn 0.998298 0.058317 0.000000
vn 0.604252 0.796794 0.000000
vn 0.604252 0.796794 0.000000
vn 0.004077 0.999983 0.004077
vn -0.604252 0.796794 0.000000
vn -0.604252 0.796794 0.000000
vn -0.004077 0.999983 0.004077
vn -0.905248 0.424884 0.000000
vn -0.905248 0.424884 0.000000
vn -0.998298 0.058317 0.000000
vn -0.998298 0.058317 0.000000
vn 0.000000 0.796794 0.604251
vn 0.000000 0.796794 0.604251
vn 0.000000 0.424883 0.905248
vn 0.000000 0.424883 0.905248
vn 0.000000 0.058317 0.998298
vn 0.000000 0.058317 0.998298
vn 0.000000 0.000000 -1.000000
vn 0.000000 0.000000 -1.000000
vn -1.000000 0.000000 0.000000
vn -1.000000 0.000000 0.000000
vn 0.000000 0.000000 1.000000
vn 0.000000 0.000000 1.000000
vn 1.000000 0.000000 0.000000
vn 1.000000 0.000000 0.000000
s off
g arena1:pCube1
usemtl lambert2SG
f 4/58/1 3/1/2 11/55/3 9/6/4
f 3/56/5 1/2/6 5/3/7 11/4/8
f 5/59/9 6/25/10 7/37/11 8/16/12
f 6/7/13 9/57/14 10/42/15 7/21/16
f 9/6/17 11/55/18 12/40/19 10/22/20
f 11/4/21 5/3/22 8/45/23 12/15/24
f 2/8/25 6/25/26 5/59/27 1/60/28
f 4/5/29 9/57/30 6/7/31 2/39/32
s 1
f 15/33/33 14/53/34 18/36/35 19/34/36
f 14/53/34 13/52/37 17/35/38 18/36/35
f 13/52/37 16/44/39 20/18/40 17/35/38
f 16/9/41 13/10/42 25/51/43 28/41/44
f 13/10/42 14/13/45 26/50/46 25/51/43
f 14/13/45 15/54/33 27/30/47 26/50/46
f 19/27/36 18/23/48 22/47/49 23/48/50
f 18/23/48 17/17/51 21/46/52 22/47/49
f 17/17/51 20/38/53 24/19/54 21/46/52
f 23/29/50 22/24/55 26/14/56 27/49/47
f 22/24/55 21/20/57 25/11/58 26/14/56
f 21/20/57 24/43/59 28/12/60 25/11/58
f 15/26/33 19/32/36 23/31/50 27/28/47
f 20/18/40 16/44/39 8/16/61 7/37/62
f 24/19/54 20/38/53 7/21/63 10/42/64
f 28/12/60 24/43/59 10/22/65 12/40/66
f 16/9/41 28/41/44 12/15/67 8/45/68
