# This file uses centimeters as units for non-parametric coordinates.

mtllib colonne.mtl
g default
v 0.000000 0.000000 0.257785
v 0.515570 0.000000 0.257785
v 0.000000 5.180046 0.257785
v 0.515570 5.180046 0.257785
v 0.000000 5.180046 -0.257785
v 0.515570 5.180046 -0.257785
v 0.000000 0.000000 -0.257785
v 0.515570 0.000000 -0.257785
vt 0.311228 0.033904
vt 0.396022 0.033904
vt 0.396022 0.885847
vt 0.311228 0.885848
vt 0.396023 0.970641
vt 0.311229 0.970642
vt 0.480816 0.033904
vt 0.480816 0.885847
vt 0.226435 0.033905
vt 0.226435 0.885848
vt 0.141641 0.885848
vt 0.141641 0.033905
vn 0.000000 0.000000 1.000000
vn 0.000000 0.000000 1.000000
vn 0.000000 0.000000 1.000000
vn 0.000000 0.000000 1.000000
vn 0.000000 1.000000 0.000000
vn 0.000000 1.000000 0.000000
vn 0.000000 1.000000 0.000000
vn 0.000000 1.000000 0.000000
vn 1.000000 0.000000 0.000000
vn 1.000000 0.000000 0.000000
vn 1.000000 0.000000 0.000000
vn 1.000000 0.000000 0.000000
vn -1.000000 0.000000 0.000000
vn -1.000000 0.000000 0.000000
vn -1.000000 0.000000 0.000000
vn -1.000000 0.000000 0.000000
vn 0.000000 0.000000 -1.000000
vn 0.000000 0.000000 -1.000000
vn 0.000000 0.000000 -1.000000
vn 0.000000 0.000000 -1.000000
s off
g polySurface23 group1
usemtl lambert2SG
f 1/1/1 2/2/2 4/3/3 3/4/4
f 3/4/5 4/3/6 6/5/7 5/6/8
f 2/2/9 8/7/10 6/8/11 4/3/12
f 7/9/13 1/1/14 3/4/15 5/10/16
f 6/11/17 8/12/18 7/9/19 5/10/20
g default
v 0.567127 0.000000 0.257785
v 1.082696 0.000000 0.257785
v 0.567127 5.180046 0.257785
v 1.082696 5.180046 0.257785
v 0.567127 5.180046 -0.257785
v 1.082696 5.180046 -0.257785
v 0.567127 0.000000 -0.257785
v 1.082696 0.000000 -0.257785
vt 0.699599 0.033904
vt 0.784393 0.033905
vt 0.784393 0.885848
vt 0.699599 0.885847
vt 0.784392 0.970642
vt 0.699598 0.970641
vt 0.869187 0.033905
vt 0.869187 0.885848
vt 0.614805 0.033904
vt 0.614805 0.885847
vt 0.530011 0.885847
vt 0.530012 0.033904
vn 0.000000 0.000000 1.000000
vn 0.000000 0.000000 1.000000
vn 0.000000 0.000000 1.000000
vn 0.000000 0.000000 1.000000
vn 0.000000 1.000000 0.000000
vn 0.000000 1.000000 0.000000
vn 0.000000 1.000000 0.000000
vn 0.000000 1.000000 0.000000
vn 1.000000 0.000000 0.000000
vn 1.000000 0.000000 0.000000
vn 1.000000 0.000000 0.000000
vn 1.000000 0.000000 0.000000
vn -1.000000 0.000000 0.000000
vn -1.000000 0.000000 0.000000
vn -1.000000 0.000000 0.000000
vn -1.000000 0.000000 0.000000
vn 0.000000 0.000000 -1.000000
vn 0.000000 0.000000 -1.000000
vn 0.000000 0.000000 -1.000000
vn 0.000000 0.000000 -1.000000
s off
g group1 polySurface24
usemtl lambert2SG
f 9/13/21 10/14/22 12/15/23 11/16/24
f 11/16/25 12/15/26 14/17/27 13/18/28
f 10/14/29 16/19/30 14/20/31 12/15/32
f 15/21/33 9/13/34 11/16/35 13/22/36
f 14/23/37 16/24/38 15/21/39 13/22/40
g default
v 1.134253 0.000000 0.257785
v 1.649823 0.000000 0.257785
v 1.134253 5.180046 0.257785
v 1.649823 5.180046 0.257785
v 1.134253 5.180046 -0.257785
v 1.649823 5.180046 -0.257785
v 1.134253 0.000000 -0.257785
v 1.649823 0.000000 -0.257785
vt 0.311228 0.033905
vt 0.396022 0.033904
vt 0.396022 0.885847
vt 0.311228 0.885848
vt 0.396023 0.970641
vt 0.311229 0.970642
vt 0.480816 0.033904
vt 0.480816 0.885847
vt 0.226434 0.033905
vt 0.226434 0.885848
vt 0.141641 0.885848
vt 0.141641 0.033905
vn 0.000000 0.000000 1.000000
vn 0.000000 0.000000 1.000000
vn 0.000000 0.000000 1.000000
vn 0.000000 0.000000 1.000000
vn 0.000000 1.000000 0.000000
vn 0.000000 1.000000 0.000000
vn 0.000000 1.000000 0.000000
vn 0.000000 1.000000 0.000000
vn 1.000000 0.000000 0.000000
vn 1.000000 0.000000 0.000000
vn 1.000000 0.000000 0.000000
vn 1.000000 0.000000 0.000000
vn -1.000000 0.000000 0.000000
vn -1.000000 0.000000 0.000000
vn -1.000000 0.000000 0.000000
vn -1.000000 0.000000 0.000000
vn 0.000000 0.000000 -1.000000
vn 0.000000 0.000000 -1.000000
vn 0.000000 0.000000 -1.000000
vn 0.000000 0.000000 -1.000000
s off
g group1 polySurface25
usemtl lambert2SG
f 17/25/41 18/26/42 20/27/43 19/28/44
f 19/28/45 20/27/46 22/29/47 21/30/48
f 18/26/49 24/31/50 22/32/51 20/27/52
f 23/33/53 17/25/54 19/28/55 21/34/56
f 22/35/57 24/36/58 23/33/59 21/34/60
g default
v 1.701380 0.000000 0.257785
v 2.216949 0.000000 0.257785
v 1.701380 5.180046 0.257785
v 2.216949 5.180046 0.257785
v 1.701380 5.180046 -0.257785
v 2.216949 5.180046 -0.257785
v 1.701380 0.000000 -0.257785
v 2.216949 0.000000 -0.257785
vt 0.699599 0.033904
vt 0.784393 0.033904
vt 0.784393 0.885846
vt 0.699599 0.885848
vt 0.784396 0.970639
vt 0.699602 0.970642
vt 0.869187 0.033904
vt 0.869187 0.885847
vt 0.614805 0.033904
vt 0.614805 0.885847
vt 0.530012 0.885847
vt 0.530012 0.033904
vn 0.000000 0.000000 1.000000
vn 0.000000 0.000000 1.000000
vn 0.000000 0.000000 1.000000
vn 0.000000 0.000000 1.000000
vn 0.000000 1.000000 0.000000
vn 0.000000 1.000000 0.000000
vn 0.000000 1.000000 0.000000
vn 0.000000 1.000000 0.000000
vn 1.000000 0.000000 0.000000
vn 1.000000 0.000000 0.000000
vn 1.000000 0.000000 0.000000
vn 1.000000 0.000000 0.000000
vn -1.000000 0.000000 0.000000
vn -1.000000 0.000000 0.000000
vn -1.000000 0.000000 0.000000
vn -1.000000 0.000000 0.000000
vn 0.000000 0.000000 -1.000000
vn 0.000000 0.000000 -1.000000
vn 0.000000 0.000000 -1.000000
vn 0.000000 0.000000 -1.000000
s off
g group1 polySurface26
usemtl lambert2SG
f 25/37/61 26/38/62 28/39/63 27/40/64
f 27/40/65 28/39/66 30/41/67 29/42/68
f 26/38/69 32/43/70 30/44/71 28/39/72
f 31/45/73 25/37/74 27/40/75 29/46/76
f 30/47/77 32/48/78 31/45/79 29/46/80
g default
v 2.268506 0.000000 0.257785
v 2.784076 0.000000 0.257785
v 2.268506 5.180046 0.257785
v 2.784076 5.180046 0.257785
v 2.268506 5.180046 -0.257785
v 2.784076 5.180046 -0.257785
v 2.268506 0.000000 -0.257785
v 2.784076 0.000000 -0.257785
vt 0.311228 0.033905
vt 0.396022 0.033905
vt 0.396022 0.885849
vt 0.311228 0.885847
vt 0.396018 0.970644
vt 0.311224 0.970640
vt 0.480816 0.033906
vt 0.480816 0.885849
vt 0.226434 0.033905
vt 0.226434 0.885848
vt 0.141641 0.885848
vt 0.141641 0.033905
vn 0.000000 0.000000 1.000000
vn 0.000000 0.000000 1.000000
vn 0.000000 0.000000 1.000000
vn 0.000000 0.000000 1.000000
vn 0.000000 1.000000 0.000000
vn 0.000000 1.000000 0.000000
vn 0.000000 1.000000 0.000000
vn 0.000000 1.000000 0.000000
vn 1.000000 0.000000 0.000000
vn 1.000000 0.000000 0.000000
vn 1.000000 0.000000 0.000000
vn 1.000000 0.000000 0.000000
vn -1.000000 0.000000 0.000000
vn -1.000000 0.000000 0.000000
vn -1.000000 0.000000 0.000000
vn -1.000000 0.000000 0.000000
vn 0.000000 0.000000 -1.000000
vn 0.000000 0.000000 -1.000000
vn 0.000000 0.000000 -1.000000
vn 0.000000 0.000000 -1.000000
s off
g group1 polySurface27
usemtl lambert2SG
f 33/49/81 34/50/82 36/51/83 35/52/84
f 35/52/85 36/51/86 38/53/87 37/54/88
f 34/50/89 40/55/90 38/56/91 36/51/92
f 39/57/93 33/49/94 35/52/95 37/58/96
f 38/59/97 40/60/98 39/57/99 37/58/100
g default
v 2.835633 0.000000 0.257785
v 3.351202 0.000000 0.257785
v 2.835633 5.180046 0.257785
v 3.351202 5.180046 0.257785
v 2.835633 5.180046 -0.257785
v 3.351202 5.180046 -0.257785
v 2.835633 0.000000 -0.257785
v 3.351202 0.000000 -0.257785
vt 0.699599 0.033904
vt 0.784393 0.033904
vt 0.784393 0.885847
vt 0.699599 0.885848
vt 0.784395 0.970640
vt 0.699601 0.970642
vt 0.869186 0.033904
vt 0.869187 0.885847
vt 0.614805 0.033904
vt 0.614805 0.885847
vt 0.530012 0.885847
vt 0.530012 0.033904
vn 0.000000 0.000000 1.000000
vn 0.000000 0.000000 1.000000
vn 0.000000 0.000000 1.000000
vn 0.000000 0.000000 1.000000
vn 0.000000 1.000000 0.000000
vn 0.000000 1.000000 0.000000
vn 0.000000 1.000000 0.000000
vn 0.000000 1.000000 0.000000
vn 1.000000 0.000000 0.000000
vn 1.000000 0.000000 0.000000
vn 1.000000 0.000000 0.000000
vn 1.000000 0.000000 0.000000
vn -1.000000 0.000000 0.000000
vn -1.000000 0.000000 0.000000
vn -1.000000 0.000000 0.000000
vn -1.000000 0.000000 0.000000
vn 0.000000 0.000000 -1.000000
vn 0.000000 0.000000 -1.000000
vn 0.000000 0.000000 -1.000000
vn 0.000000 0.000000 -1.000000
s off
g group1 polySurface28
usemtl lambert2SG
f 41/61/101 42/62/102 44/63/103 43/64/104
f 43/64/105 44/63/106 46/65/107 45/66/108
f 42/62/109 48/67/110 46/68/111 44/63/112
f 47/69/113 41/61/114 43/64/115 45/70/116
f 46/71/117 48/72/118 47/69/119 45/70/120
